<?xml version="1.0" encoding="UTF-8"?>
<svg width="600px" height="627px" viewBox="0 0 600 627" version="1.1" xmlns="http://www.w3.org/2000/svg" xmlns:xlink="http://www.w3.org/1999/xlink">
    <!-- Generator: Sketch 49 (51002) - http://www.bohemiancoding.com/sketch -->
    <title>handshake_logo_H_full</title>
    <desc>Created with Sketch.</desc>
    <defs></defs>
    <g id="handshake_logo_H_full" stroke="none" stroke-width="1" fill="none" fill-rule="evenodd">
        <path d="M515.46292,206.237832 L476.935104,137.793546 L551.577927,137.815653 C553.572075,137.815653 555.896745,139.142093 556.987466,140.932787 C558.177344,142.889285 564.236909,152.881797 571.519405,164.886076 C580.234161,179.255839 590.656613,196.433232 596.617021,206.237832 L515.46292,206.237832 Z M377.403995,620.761277 C375.597143,624 373.250438,624 372.490238,624 L341.9941,624 C325.853623,623.988946 307.234232,623.977893 296.150737,623.977893 L414.75295,411.051168 C416.725063,407.513995 416.680993,403.203067 414.631759,399.710109 C412.582524,396.217151 408.858646,394.07274 404.826281,394.07274 L404.815263,394.07274 L202.679193,394.338028 L162.487751,324.744161 L456.905487,324.744161 C456.927522,324.744161 456.949557,324.733108 456.982609,324.733108 C457.015661,324.733108 457.037696,324.744161 457.059731,324.744161 C457.224992,324.744161 457.379235,324.688893 457.544496,324.677839 C458.205539,324.633625 458.866583,324.567303 459.494574,324.412551 C459.979339,324.302015 460.453087,324.147263 460.926835,323.970405 C461.180235,323.870922 461.422618,323.771439 461.665,323.660902 C463.868478,322.677126 465.818557,321.063291 467.063522,318.775183 L515.595129,229.052594 L595.713595,229.052594 L377.403995,620.761277 Z M276.396555,612.669995 C273.818486,608.425388 270.469199,602.90961 266.822442,596.90747 C254.560086,576.668212 238.849287,550.758424 237.075487,547.917632 C236.480548,546.955964 236.205113,544.612587 237.450078,542.379747 C240.292565,537.272954 293.969293,440.586557 307.046936,417.020146 L385.424655,416.920663 L276.396555,612.669995 Z M142.733569,479.418078 L103.776074,410.200036 L143.042056,336.593689 L182.429228,404.78374 C170.188907,427.830629 151.084751,463.777144 142.733569,479.418078 Z M90.4450315,490.1954 C70.6137279,490.1954 50.8925982,490.184347 47.9950244,490.184347 L47.984007,490.184347 C46.0449462,490.184347 43.698242,488.824746 42.629555,487.078267 L29.9485381,466.175789 C20.9142776,451.27545 9.39008672,432.274202 3,421.762168 L84.1541013,421.762168 L122.6709,490.206454 C114.264631,490.206454 102.365848,490.1954 90.4450315,490.1954 Z M222.213027,7.24977714 C224.019879,4 226.355566,4 227.115766,4 L303.785789,4.01105366 L184.864071,216.937779 C184.764915,217.114637 184.709828,217.302549 184.621689,217.490462 C184.445411,217.844179 184.291167,218.20895 184.147941,218.584774 C184.02675,218.949545 183.916576,219.303263 183.817419,219.668034 C183.72928,220.010697 183.652158,220.353361 183.597072,220.696024 C183.530967,221.127117 183.486898,221.547156 183.47588,221.967196 C183.464863,222.155108 183.420793,222.331966 183.420793,222.530932 C183.420793,222.67463 183.453845,222.807274 183.464863,222.950972 C183.47588,223.371011 183.51995,223.779996 183.586054,224.188982 C183.630124,224.531646 183.685211,224.874309 183.77335,225.216973 C183.861489,225.581744 183.98268,225.924407 184.103871,226.278124 C184.225063,226.620788 184.346254,226.974505 184.500498,227.306115 C184.654741,227.637725 184.831019,227.947228 185.018315,228.267784 C185.205611,228.577287 185.381889,228.886789 185.602237,229.185238 C185.811567,229.483687 186.05395,229.760029 186.30735,230.047424 C186.549732,230.312712 186.792115,230.589053 187.056532,230.843288 C187.32095,231.086468 187.596384,231.296488 187.882837,231.517561 C188.202341,231.771795 188.521845,232.003922 188.863384,232.213942 C188.995593,232.291318 189.09475,232.3908 189.226958,232.468176 C189.359167,232.545552 189.502393,232.567659 189.645619,232.633981 C190.229541,232.93243 190.846515,233.186664 191.496541,233.38563 C191.727906,233.451952 191.948254,233.540382 192.190636,233.59565 C193.016941,233.794616 193.86528,233.916206 194.757688,233.916206 C194.768706,233.916206 194.768706,233.92726 194.779723,233.92726 L194.790741,233.92726 L194.801758,233.92726 L199.836706,233.916206 C199.85874,233.916206 199.880775,233.92726 199.90281,233.92726 L199.913827,233.92726 L396.970881,233.661972 C402.182107,242.725976 411.92148,259.781779 420.217576,274.306293 C426.585628,285.470494 431.85194,294.678196 435.994479,301.918346 L142.755603,301.918346 C142.623395,301.918346 142.502203,301.96256 142.381012,301.973614 C138.392717,302.039936 134.547647,304.151186 132.520447,307.942592 L83.9778231,398.936352 L3.91444344,398.936352 C38.8616074,336.217864 219.87734,11.428062 222.213027,7.24977714 Z M323.385727,15.5952933 L330.502962,27.3121769 C343.0077,47.9383134 360.668578,77.0536638 362.541534,80.0823676 C363.136473,81.0440364 363.411908,83.3763594 362.155926,85.6202532 L292.559067,210.979854 L214.214401,211.079337 L323.385727,15.5952933 Z M456.8504,148.504546 L495.829929,217.75575 L456.0902,291.207345 C451.352722,282.939205 445.469436,272.63719 439.949723,262.965234 C429.042506,243.85345 421.08795,229.936887 416.603871,222.155108 C425.076245,206.646818 447.474601,165.615618 456.8504,148.504546 Z" id="Fill-1" fill="#292C46"></path>
    </g>
</svg>